<?xml version="1.0" standalone="no"?><!DOCTYPE svg PUBLIC "-//W3C//DTD SVG 1.1//EN" "http://www.w3.org/Graphics/SVG/1.1/DTD/svg11.dtd"><svg t="1591371704319" class="icon" viewBox="0 0 1024 1024" version="1.1" xmlns="http://www.w3.org/2000/svg" p-id="5005" data-spm-anchor-id="a313x.7781069.0.i12" xmlns:xlink="http://www.w3.org/1999/xlink" width="200" height="200"><defs><style type="text/css"></style></defs><path d="M508.586667 365.226667c-3.413333-3.413333-10.24-6.826667-13.653334-6.826667H146.773333c-81.92 0-146.773333 68.266667-146.773333 153.6s64.853333 153.6 146.773333 153.6h348.16c6.826667 0 10.24-3.413333 13.653334-6.826667 3.413333-3.413333 3.413333-10.24 0-17.066666-20.48-40.96-30.72-85.333333-30.72-129.706667s10.24-88.746667 30.72-129.706667c3.413333-3.413333 3.413333-10.24 0-17.066666zM768 392.533333c-64.853333 0-119.466667 54.613333-119.466667 119.466667s54.613333 119.466667 119.466667 119.466667S887.466667 576.853333 887.466667 512s-54.613333-119.466667-119.466667-119.466667z" fill="#1296db" p-id="5006" data-spm-anchor-id="a313x.7781069.0.i9" class=""></path><path d="M768 256c-139.946667 0-256 116.053333-256 256s116.053333 256 256 256S1024 651.946667 1024 512s-116.053333-256-256-256z m0 409.6c-85.333333 0-153.6-68.266667-153.6-153.6s68.266667-153.6 153.6-153.6 153.6 68.266667 153.6 153.6-68.266667 153.6-153.6 153.6z" fill="#e6e6e6" p-id="5007" data-spm-anchor-id="a313x.7781069.0.i10" class="selected"></path></svg>