<?xml version="1.0" standalone="no"?><!DOCTYPE svg PUBLIC "-//W3C//DTD SVG 1.1//EN" "http://www.w3.org/Graphics/SVG/1.1/DTD/svg11.dtd"><svg t="1591371904696" class="icon" viewBox="0 0 1027 1024" version="1.1" xmlns="http://www.w3.org/2000/svg" p-id="3947" xmlns:xlink="http://www.w3.org/1999/xlink" width="200.5859375" height="200"><defs><style type="text/css"></style></defs><path d="M877.226667 358.4H532.48c-6.826667 0-10.24 3.413333-13.653333 6.826667-3.413333 3.413333-3.413333 10.24 0 17.066666 20.48 40.96 30.72 85.333333 30.72 129.706667s-10.24 88.746667-30.72 129.706667c-3.413333 6.826667-3.413333 10.24 0 17.066666s10.24 6.826667 13.653333 6.826667h348.16c81.92 0 146.773333-68.266667 146.773333-153.6s-68.266667-153.6-150.186666-153.6zM256 392.533333C191.146667 392.533333 136.533333 447.146667 136.533333 512s54.613333 119.466667 119.466667 119.466667S375.466667 576.853333 375.466667 512s-54.613333-119.466667-119.466667-119.466667z" fill="#dbdbdb" p-id="3948" data-spm-anchor-id="a313x.7781069.0.i0" class="selected"></path><path d="M256 256C116.053333 256 0 372.053333 0 512s116.053333 256 256 256S512 651.946667 512 512s-116.053333-256-256-256z m0 409.6C170.666667 665.6 102.4 597.333333 102.4 512s68.266667-153.6 153.6-153.6 153.6 68.266667 153.6 153.6-68.266667 153.6-153.6 153.6z" fill="#dbdbdb" p-id="3949" data-spm-anchor-id="a313x.7781069.0.i1" class="selected"></path></svg>